<svg id="Layer_1" data-name="Layer 1" xmlns="http://www.w3.org/2000/svg" viewBox="0 0 64 64"><defs><style>.cls-1{fill:#999;}</style></defs><title>top_naverpost</title><polygon class="cls-1" points="30.1 23.9 33.9 29.1 37.7 29.1 37.7 18.7 33.9 18.7 33.9 23.9 30.1 18.7 26.3 18.7 26.3 29.1 30.1 29.1 30.1 23.9"/><path class="cls-1" d="M54,0H10A10,10,0,0,0,0,10V54A10,10,0,0,0,10,64H54A10,10,0,0,0,64,54V10A10,10,0,0,0,54,0ZM32,55.2l-5.3-6.3H37.3Zm7.4-8.8H24.6l-5.5-6.6H44.9Zm5.9-9.1H18.8V10.8H45.3Z"/></svg>