<svg id="Layer_1" data-name="Layer 1" xmlns="http://www.w3.org/2000/svg" viewBox="0 0 64 64"><defs><style>.cls-1{fill:#999;}</style></defs><title>top_youtube</title><path class="cls-1" d="M54,0H10A10,10,0,0,0,0,10V54A10,10,0,0,0,10,64H54A10,10,0,0,0,64,54V10A10,10,0,0,0,54,0ZM53,33.6c0,2.3-.2,4.5-.4,6.8,0,0-.4,2.9-1.7,4.2a6,6,0,0,1-4.2,1.8c-5.9.4-14.7.4-14.7.4s-11-.1-14.3-.4c-.9-.2-3-.1-4.6-1.8-1.3-1.3-1.7-4.2-1.7-4.2a50.7,50.7,0,0,1-.4-6.8V30.4c0-2.3.2-4.5.4-6.8,0,0,.4-2.9,1.7-4.2a6,6,0,0,1,4.2-1.8c5.9-.4,14.7-.4,14.7-.4s8.8,0,14.7.4a6,6,0,0,1,4.2,1.8c1.3,1.3,1.7,4.2,1.7,4.2a51.69,51.69,0,0,1,.4,6.8Z"/><polygon class="cls-1" points="27.7 37.5 39 31.6 27.7 25.6 27.7 37.5"/></svg>